# xmcd CD database file
#
# Track frame offsets:
#	150
#	13512
#	27012
#	39462
#	51612
#	62800
#	74775
#	87287
#	99625
#	112250
#	122837
#	134475
#
# Disc length: 1947 seconds
#
# Revision: 0
# Processed by: cddbd v1.5.1PL2 Copyright (c) Steve Scherf et al.
# Submitted via: CDex 1.51
#
DISCID=b407990c
DTITLE=Roy Acuff - 36 All-Time Favorites [CD3]
DYEAR=1900
DGENRE=Country
TTITLE0=Tennesse Waltz
TTITLE1=Thy Burdens Are Greater Than Mine
TTITLE2=The Pale Horse And His Rider
TTITLE3=A Sinner's Death
TTITLE4=Tennessee Central (No. 9)
TTITLE5=Tell Mother I'll Be There
TTITLE6=Beautiful Brown Eyes
TTITLE7=Be Honest With Me
TTITLE8=We Live In Two Different Worlds
TTITLE9=Will The Circle Be Unbroken
TTITLE10=Wait For The Light To Shine
TTITLE11=Just To Ease My Worried Mind
EXTD=
EXTT0=
EXTT1=
EXTT2=
EXTT3=
EXTT4=
EXTT5=
EXTT6=
EXTT7=
EXTT8=
EXTT9=
EXTT10=
EXTT11=
PLAYORDER=
